<svg width="89.0481px" height="89.0481px" viewBox="0 0 89.0481 89.0481" xmlns="http://www.w3.org/2000/svg"><defs><style>.a{fill:#eb7ab0;}.b{fill:#231f20;}.b,.c,.e,.f{fill-rule:evenodd;}.c{fill:#26b4df;}.d,.e{fill:#f9ddd1;}.f{fill:#faef5c;}</style></defs><circle class="a" cx="44.524" cy="44.524" r="43.524"/><path class="b" d="M44.524,0A44.5248,44.5248,0,1,1,13.041,13.041,44.3853,44.3853,0,0,1,44.524,0ZM74.5931,14.455A42.5243,42.5243,0,1,0,87.048,44.524,42.3918,42.3918,0,0,0,74.5931,14.455Z"/><path class="c" d="M64.0851,83.3771a43.5732,43.5732,0,0,1-39.1221,0c-.0516-.5808-.08-1.1679-.08-1.762a19.6407,19.6407,0,1,1,39.2814,0C64.1647,82.2092,64.1367,82.7963,64.0851,83.3771Z"/><path class="b" d="M64.5344,84.2677a44.467,44.467,0,0,1-40.0207,0,.9975.9975,0,0,1-.5479-.8659c-.0258-.2988-.0457-.5854-.0581-.8575-.0159-.35-.0244-.6625-.0244-.9292a20.6408,20.6408,0,0,1,41.2815,0c0,.2667-.0085.5788-.0244.9292-.0133.29-.0349.5978-.0632.9187a.995.995,0,0,1-.5437.803l.0009.0017ZM54.36,85.87a42.2276,42.2276,0,0,0,8.7738-3.1349l.0144-.2772c.0105-.2364.0165-.5159.0165-.843a18.6407,18.6407,0,1,0-37.2813,0c0,.3271.006.6066.0164.843l.0145.2772A42.686,42.686,0,0,0,54.36,85.87Z"/><circle class="d" cx="44.524" cy="66.439" r="7.8845" transform="translate(-30.3895 94.4476) rotate(-76.6718)"/><path class="b" d="M44.524,57.5543a8.8855,8.8855,0,1,1-6.2821,2.6025,8.8568,8.8568,0,0,1,6.2821-2.6025Zm4.8683,4.0164a6.8855,6.8855,0,1,0,2.0162,4.8683A6.8636,6.8636,0,0,0,49.3923,61.5707Z"/><path class="e" d="M63.5386,47.3567a4.9312,4.9312,0,1,1-4.9312,4.9311A4.9309,4.9309,0,0,1,63.5386,47.3567Z"/><path class="b" d="M63.5386,46.3566a5.9319,5.9319,0,1,1-4.1939,1.7374,5.9133,5.9133,0,0,1,4.1939-1.7374Zm2.78,3.1513a3.9324,3.9324,0,1,0,1.1511,2.78A3.92,3.92,0,0,0,66.3185,49.5079Z"/><path class="e" d="M25.51,47.3567a4.9312,4.9312,0,1,1-4.9311,4.9311A4.931,4.931,0,0,1,25.51,47.3567Z"/><path class="b" d="M25.51,46.3566a5.9319,5.9319,0,1,1-4.1938,1.7374A5.9134,5.9134,0,0,1,25.51,46.3566Zm2.78,3.1513a3.9324,3.9324,0,1,0,1.1511,2.78A3.92,3.92,0,0,0,28.29,49.5079Z"/><circle class="d" cx="44.524" cy="47.126" r="19.5001"/><path class="b" d="M44.524,26.6258A20.501,20.501,0,1,1,30.0285,32.63,20.4368,20.4368,0,0,1,44.524,26.6258Zm13.0816,7.4185A18.5,18.5,0,1,0,63.0241,47.126,18.4427,18.4427,0,0,0,57.6056,34.0443Z"/><path class="b" d="M60.57,50.15l-1.4094.8577c-.5122,4.74-3.62,7.3644-6.7495,7.4194-2.8514.05-5.7172-1.84-6.4948-6.2731a2.3737,2.3737,0,0,0-2.7683-.0969c-.7529,4.5011-3.6391,6.4205-6.5112,6.37-3.1286-.055-6.2373-2.6793-6.75-7.4194L28.478,50.15V48.2108c4.6136,0,10.2653.2355,14.6162,1.7952a4.4117,4.4117,0,0,0,2.903-.0156c4.3452-1.5455,9.9748-1.78,14.5729-1.78Z"/><path class="b" d="M60.7972,50.5956l-1.17.7117A9.5741,9.5741,0,0,1,57.3259,56.61a6.8162,6.8162,0,0,1-4.9068,2.3154,6.3982,6.3982,0,0,1-4.61-1.806,8.5928,8.5928,0,0,1-2.344-4.6582,2.0808,2.0808,0,0,0-.9646-.3038,1.8186,1.8186,0,0,0-.9023.2177A8.6551,8.6551,0,0,1,41.27,57.0875a6.4,6.4,0,0,1-4.6411,1.8377A6.8159,6.8159,0,0,1,31.7222,56.61a9.5734,9.5734,0,0,1-2.3014-5.3022l-1.2025-.7316a.4981.4981,0,0,1-.239-.4257h-.0014V48.2108a.5.5,0,0,1,.5-.5c2.3116,0,4.89.06,7.4554.3167a31.3433,31.3433,0,0,1,7.3289,1.51,3.7073,3.7073,0,0,0,1.2649.2089,3.9973,3.9973,0,0,0,1.3039-.2265A31.503,31.503,0,0,1,53.14,48.0251c2.5577-.2548,5.1265-.3144,7.43-.3144a.5.5,0,0,1,.5.5V50.15a.5.5,0,0,1-.2729.4456Zm-1.8961-.0136,1.169-.7115V48.7119c-2.1612.0085-4.5193.0749-6.8326.3053a30.513,30.513,0,0,0-7.0742,1.444,5.0084,5.0084,0,0,1-1.6322.2809,4.6968,4.6968,0,0,1-1.605-.2673,30.3645,30.3645,0,0,0-7.09-1.4553c-2.3212-.2324-4.6893-.2991-6.8578-.3076v1.1586l1.1636.7081.0054.0034a.4976.4976,0,0,1,.2364.373A8.6709,8.6709,0,0,0,32.46,55.9377a5.8235,5.8235,0,0,0,4.1846,1.9914,5.4125,5.4125,0,0,0,3.9262-1.5526,7.792,7.792,0,0,0,2.0832-4.3914.4984.4984,0,0,1,.23-.3518,2.8791,2.8791,0,0,1,1.6514-.4722,3.1675,3.1675,0,0,1,1.637.5643.4979.4979,0,0,1,.2356.3428A7.7216,7.7216,0,0,0,48.501,56.4a5.4164,5.4164,0,0,0,3.9022,1.5288,5.8241,5.8241,0,0,0,4.1845-1.9911,8.6713,8.6713,0,0,0,2.077-4.983h0A.4975.4975,0,0,1,58.9011,50.582Z"/><path class="f" d="M63.1335,34.1407l6.1877,1.5c-1.4961-2.46-4.0657-4.4155-8.8126-4.875l9.75-1.8748c-3.1991-1.98-7.1129-2.77-11.8125-2.25l6.3751-3.5625a21.3809,21.3809,0,0,0-13.6876-.1874l3.9376-4.125c-16.452-.4771-34.9132,6.0812-32.144,25.4965a24.0833,24.0833,0,0,0,5.3314,12.0045c-1.6359-8.3461-3.2077-21.1235,6.4048-21.1235h7.2828l2.7017,3.251,2.6419-3.251c2.1875,0,5.0964-.0088,7.2828,0,8.6493.0351,7.6912,13.89,6.5919,20.9361C64.2758,52.3338,68.9125,40.6967,63.1335,34.1407Z"/><path class="b" d="M63.4365,33.1886l3.0952.75a8.2968,8.2968,0,0,0-.9094-.63,12.2809,12.2809,0,0,0-5.2075-1.5506.9966.9966,0,0,1-.0936-1.9709l0-.0017,6.8148-1.31a15.5128,15.5128,0,0,0-2.4083-.6659,20.5783,20.5783,0,0,0-6.1719-.176.9983.9983,0,0,1-.5462-1.89l4.1984-2.3462a21.8454,21.8454,0,0,0-4.254-.5414,18.7282,18.7282,0,0,0-6.5038.9807.9968.9968,0,0,1-1.0386-1.6324l-.0006-.0006,2.3488-2.46a52.6783,52.6783,0,0,0-6.7782.512c-5.8555.8348-11.3933,2.7212-15.49,5.9326A17.2841,17.2841,0,0,0,23.6554,39.84a25.1562,25.1562,0,0,0,.26,4.2817,24.0437,24.0437,0,0,0,1.8255,6.2731c.2395.5394.4978,1.0669.7719,1.5783a35.4281,35.4281,0,0,1-.2585-9.5386c.6738-4.7273,2.9483-8.2913,8.4089-8.2913h7.2828a1,1,0,0,1,.8243.434l1.8681,2.2479,1.8776-2.3109a.9949.9949,0,0,1,.8139-.367l2.2487-.002c1.6979-.002,3.5149-.004,4.9977.002a8.3065,8.3065,0,0,1,1.2425.0958c2.8919.4512,4.6865,2.3751,5.7447,5.0221a23.7693,23.7693,0,0,1,1.2985,8.63c-.0048,1.2458-.0658,2.4871-.16,3.6759a24.5978,24.5978,0,0,0,2.1157-7.7564c.2929-3.2647-.2653-6.5534-2.4341-9.0139a.9992.9992,0,0,1,1.0531-1.6123Zm5.65,3.4208L65.42,35.7205a14.9168,14.9168,0,0,1,1.3819,8.2661A25.8962,25.8962,0,0,1,61.956,56.6844.9963.9963,0,0,1,60.18,55.927a55.1084,55.1084,0,0,0,.69-8.04,21.8514,21.8514,0,0,0-1.1579-7.88c-.8054-2.0146-2.1235-3.4718-4.1976-3.7953a6.29,6.29,0,0,0-.9419-.0725h-.004c-1.4814-.0057-3.295-.0037-4.99-.002l-1.8133.0017-2.344,2.8842-.0009-.0008a.9855.9855,0,0,1-.136.1374.9961.9961,0,0,1-1.4023-.1289l-2.4-2.8877H34.6634c-4.1519,0-5.898,2.8253-6.4321,6.5724-.5833,4.0924.205,9.2648,1.0078,13.36l-.0029.0006a.9961.9961,0,0,1-1.7237.8509,22.4164,22.4164,0,0,1-3.5918-5.7276,26.0567,26.0567,0,0,1-1.982-6.7964,27.1279,27.1279,0,0,1-.2755-4.6173,19.2076,19.2076,0,0,1,7.6017-15.1688C33.66,21.1708,39.5288,19.1574,45.7,18.2775a55.5543,55.5543,0,0,1,9.3535-.5091.9974.9974,0,0,1,.74,1.6849l-1.5806,1.656a20.944,20.944,0,0,1,3.7874-.2463,25.3753,25.3753,0,0,1,7.1252,1.2656v0a.9968.9968,0,0,1,.18,1.82l-2.82,1.5755a19.9326,19.9326,0,0,1,2.6166.3232,16.72,16.72,0,0,1,5.6291,2.164.9982.9982,0,0,1-.2855,1.86l-5.2251,1.0046a11.36,11.36,0,0,1,1.4244.7214,10.2261,10.2261,0,0,1,3.5272,3.5237l-.0009.0006a.9965.9965,0,0,1-1.0851,1.4879Z"/></svg>