<svg width="89.0482px" height="89.0482px" viewBox="0 0 89.0482 89.0482" xmlns="http://www.w3.org/2000/svg"><defs><style>.a{fill:#f48580;}.b{fill:#231f20;}.b,.c,.d,.f{fill-rule:evenodd;}.c{fill:#fff9ae;}.d{fill:#8ed8f8;}.e,.f{fill:#f9ddd1;}</style></defs><circle class="a" cx="44.5241" cy="44.5241" r="43.524"/><path class="b" d="M44.5241,0a44.5251,44.5251,0,1,1-31.483,13.0411A44.3855,44.3855,0,0,1,44.5241,0Zm30.069,14.455A42.5244,42.5244,0,1,0,87.048,44.5241,42.3921,42.3921,0,0,0,74.5931,14.455Z"/><path class="c" d="M24.16,51.8168H64.6194c3.69-3.1609,7.697-6.2218,5.4936-14.9391C66.6164,23.0434,55.5772,16,44.5105,15.941c-11.14-.06-22.31,6.9548-25.8438,20.9367C16.4631,45.5953,20.47,48.6559,24.16,51.8168Z"/><path class="b" d="M24.5254,50.8167H64.2541l.08-.0683c3.3494-2.8582,6.79-5.7946,4.81-13.6287a26.99,26.99,0,0,0-8.9558-14.572,25.0869,25.0869,0,0,0-31.5093-.0936A26.9947,26.9947,0,0,0,19.6356,37.12c-1.98,7.8339,1.46,10.77,4.81,13.6284l.08.0686Zm40.094,2H24.16v-.0026a.9937.9937,0,0,1-.6486-.2395l-.3637-.3107c-3.8146-3.255-7.7323-6.5993-5.45-15.6285A28.9668,28.9668,0,0,1,27.421,20.907a27.0987,27.0987,0,0,1,34.0333.0935,28.9716,28.9716,0,0,1,9.6276,15.6351c2.2821,9.03-1.6359,12.3738-5.4508,15.6288L65.32,52.53A.9975.9975,0,0,1,64.6194,52.8169Z"/><path class="d" d="M64.0851,83.3772a43.5732,43.5732,0,0,1-39.1221,0c-.0516-.5808-.08-1.1679-.08-1.762a19.6407,19.6407,0,0,1,39.2814,0C64.1648,82.2093,64.1367,82.7964,64.0851,83.3772Z"/><path class="b" d="M64.5344,84.2678a44.467,44.467,0,0,1-40.0207,0,.9977.9977,0,0,1-.5479-.866c-.0258-.2987-.0456-.5853-.0581-.8574-.0159-.35-.0244-.6625-.0244-.9292a20.6408,20.6408,0,0,1,41.2815,0c0,.2667-.0085.5788-.0244.9292-.0133.2905-.0348.5978-.0632.9187a.995.995,0,0,1-.5437.803l.0009.0017ZM54.36,85.87a42.22,42.22,0,0,0,8.7738-3.1348l.0145-.2772c.01-.2364.0164-.5159.0164-.843a18.6407,18.6407,0,1,0-37.2813,0c0,.3271.006.6066.0165.843l.0144.2772A42.6847,42.6847,0,0,0,54.36,85.87Z"/><circle class="e" cx="44.5241" cy="66.439" r="7.8846" transform="translate(-30.3672 94.5074) rotate(-76.7174)"/><path class="b" d="M44.5241,57.5544a8.8855,8.8855,0,1,1-6.2822,2.6025,8.8564,8.8564,0,0,1,6.2822-2.6025Zm4.8682,4.0164a6.8852,6.8852,0,1,0,2.0163,4.8682A6.8635,6.8635,0,0,0,49.3923,61.5708Z"/><path class="f" d="M63.5386,47.3568a4.9312,4.9312,0,1,1-4.9312,4.9311A4.9309,4.9309,0,0,1,63.5386,47.3568Z"/><path class="b" d="M63.5386,46.3567a5.9317,5.9317,0,1,1-4.1939,1.7374,5.913,5.913,0,0,1,4.1939-1.7374Zm2.78,3.1513a3.9322,3.9322,0,1,0,1.1512,2.78A3.92,3.92,0,0,0,66.3185,49.508Z"/><path class="f" d="M25.51,47.3568a4.9312,4.9312,0,1,1-4.9311,4.9311A4.931,4.931,0,0,1,25.51,47.3568Z"/><path class="b" d="M25.51,46.3567a5.9319,5.9319,0,1,1-4.1938,1.7374A5.9134,5.9134,0,0,1,25.51,46.3567Zm2.78,3.1513a3.9324,3.9324,0,1,0,1.1511,2.78A3.92,3.92,0,0,0,28.29,49.508Z"/><circle class="e" cx="44.5241" cy="47.126" r="19.5001"/><path class="b" d="M44.5241,26.6259A20.501,20.501,0,1,1,30.0285,32.63a20.4366,20.4366,0,0,1,14.4956-6.0046Zm13.0816,7.4185A18.5006,18.5006,0,1,0,63.0241,47.126,18.4427,18.4427,0,0,0,57.6057,34.0444Z"/><path class="b" d="M36.18,49.7566a2.5314,2.5314,0,1,1-2.5313,2.5313A2.5313,2.5313,0,0,1,36.18,49.7566Z"/><path class="b" d="M52.8676,49.7566a2.5314,2.5314,0,1,1-2.5314,2.5313A2.5313,2.5313,0,0,1,52.8676,49.7566Z"/><polygon class="c" points="64.898 36.639 65.648 43.539 40.345 43.539 38.425 29.514 36.43 43.539 23.648 43.539 26.647 29.439 40.597 22.989 51.847 23.289 62.198 28.989 64.898 36.639"/><path class="b" d="M65.3851,42.539a1,1,0,0,1,0,2H40.345a1,1,0,0,1-.9981-.9368l-.94-6.8692L37.4185,43.68a.9985.9985,0,0,1-.9885.8577v.0017H23.8538a1,1,0,0,1,0-2h11.71l1.8728-13.1655h.0009a.9975.9975,0,0,1,1.976.0076L41.2146,42.539Z"/></svg>