<?xml version="1.0" encoding="UTF-8" standalone="no" ?>
<!DOCTYPE svg PUBLIC "-//W3C//DTD SVG 1.1//EN" "http://www.w3.org/Graphics/SVG/1.1/DTD/svg11.dtd">
<svg xmlns="http://www.w3.org/2000/svg" xmlns:xlink="http://www.w3.org/1999/xlink" version="1.1" width="1080" height="1080" viewBox="0 0 1080 1080" xml:space="preserve">
<desc>Created with Fabric.js 5.2.4</desc>
<defs>
</defs>
<g transform="matrix(1 0 0 1 540 540)" id="d9397b91-0d73-4ef5-8547-ac96c8101276"  >
<rect style="stroke: none; stroke-width: 1; stroke-dasharray: none; stroke-linecap: butt; stroke-dashoffset: 0; stroke-linejoin: miter; stroke-miterlimit: 4; fill: rgb(255,255,255); fill-rule: nonzero; opacity: 1; visibility: hidden;" vector-effect="non-scaling-stroke"  x="-540" y="-540" rx="0" ry="0" width="1080" height="1080" />
</g>
<g transform="matrix(1 0 0 1 540 540)" id="fdc102ec-75f9-4e88-aa21-117db84a70f1"  >
</g>
<g transform="matrix(45 0 0 45 540 540)"  >
<path style="stroke: rgb(255,255,255); stroke-width: 1; stroke-dasharray: none; stroke-linecap: butt; stroke-dashoffset: 0; stroke-linejoin: miter; stroke-miterlimit: 4; fill: none; fill-rule: nonzero; opacity: 1;"  transform=" translate(-12, -12)" d="M 20 8 C 18.5343681 5.03213345 15.4860999 3 11.9637942 3 C 7.01333514 3 3 7.02954545 3 12 M 4 16 C 5.4656319 18.9678666 8.51390007 21 12.0362058 21 C 16.9866649 21 21 16.9704545 21 12 M 9 16 L 3 16 L 3 22 M 21 2 L 21 8 L 15 8" stroke-linecap="round" />
</g>
<g transform="matrix(45 0 0 45 540 540)"  >
<path style="stroke: rgb(255,255,255); stroke-width: 1; stroke-dasharray: none; stroke-linecap: butt; stroke-dashoffset: 0; stroke-linejoin: miter; stroke-miterlimit: 4; fill: none; fill-rule: nonzero; opacity: 1;"  transform=" translate(-12, -12)" d="M 20 8 C 18.5343681 5.03213345 15.4860999 3 11.9637942 3 C 7.01333514 3 3 7.02954545 3 12 M 4 16 C 5.4656319 18.9678666 8.51390007 21 12.0362058 21 C 16.9866649 21 21 16.9704545 21 12 M 9 16 L 3 16 L 3 22 M 21 2 L 21 8 L 15 8" stroke-linecap="round" />
</g>
<g transform="matrix(NaN NaN NaN NaN 0 0)"  >
<g style=""   >
</g>
</g>
<g transform="matrix(45 0 0 45 540 540)"  >
<path style="stroke: rgb(255,255,255); stroke-width: 1; stroke-dasharray: none; stroke-linecap: butt; stroke-dashoffset: 0; stroke-linejoin: miter; stroke-miterlimit: 4; fill: none; fill-rule: nonzero; opacity: 1;"  transform=" translate(-12, -12)" d="M 20 8 C 18.5343681 5.03213345 15.4860999 3 11.9637942 3 C 7.01333514 3 3 7.02954545 3 12 M 4 16 C 5.4656319 18.9678666 8.51390007 21 12.0362058 21 C 16.9866649 21 21 16.9704545 21 12 M 9 16 L 3 16 L 3 22 M 21 2 L 21 8 L 15 8" stroke-linecap="round" />
</g>
<g transform="matrix(45 0 0 45 540 540)"  >
<path style="stroke: rgb(255,255,255); stroke-width: 1; stroke-dasharray: none; stroke-linecap: butt; stroke-dashoffset: 0; stroke-linejoin: miter; stroke-miterlimit: 4; fill: none; fill-rule: nonzero; opacity: 1;"  transform=" translate(-12, -12)" d="M 20 8 C 18.5343681 5.03213345 15.4860999 3 11.9637942 3 C 7.01333514 3 3 7.02954545 3 12 M 4 16 C 5.4656319 18.9678666 8.51390007 21 12.0362058 21 C 16.9866649 21 21 16.9704545 21 12 M 9 16 L 3 16 L 3 22 M 21 2 L 21 8 L 15 8" stroke-linecap="round" />
</g>
<g transform="matrix(NaN NaN NaN NaN 0 0)"  >
<g style=""   >
</g>
</g>
</svg>